<svg width="33" height="32" viewBox="0 0 33 32" fill="none" xmlns="http://www.w3.org/2000/svg">
<path d="M6.13752 24.5C6.16951 24.6314 6.22752 24.7551 6.30812 24.8638C6.38873 24.9725 6.49029 25.0639 6.60682 25.1326C6.72334 25.2014 6.85246 25.2461 6.98656 25.2641C7.12065 25.2821 7.25699 25.273 7.38752 25.2375C13.3463 23.5875 19.6413 23.5875 25.6 25.2375C25.7306 25.273 25.8669 25.2821 26.001 25.2641C26.1351 25.2461 26.2642 25.2014 26.3807 25.1326C26.4973 25.0639 26.5988 24.9725 26.6794 24.8638C26.76 24.7551 26.818 24.6314 26.85 24.5L30.0375 10.9625C30.0813 10.7813 30.0735 10.5914 30.0151 10.4144C29.9567 10.2374 29.85 10.0802 29.707 9.9606C29.564 9.84101 29.3905 9.76377 29.2059 9.73759C29.0213 9.71141 28.8331 9.73734 28.6625 9.81246L22.3375 12.625C22.1083 12.7259 21.8499 12.7383 21.6121 12.6598C21.3743 12.5813 21.1741 12.4175 21.05 12.2L17.375 5.57496C17.2885 5.41866 17.1618 5.28837 17.0079 5.19765C16.854 5.10693 16.6787 5.05908 16.5 5.05908C16.3214 5.05908 16.146 5.10693 15.9921 5.19765C15.8383 5.28837 15.7115 5.41866 15.625 5.57496L11.95 12.2C11.826 12.4175 11.6257 12.5813 11.3879 12.6598C11.1501 12.7383 10.8917 12.7259 10.6625 12.625L4.33752 9.81246C4.16691 9.73734 3.97871 9.71141 3.79414 9.73759C3.60958 9.76377 3.43601 9.84101 3.29302 9.9606C3.15002 10.0802 3.04331 10.2374 2.98491 10.4144C2.92651 10.5914 2.91876 10.7813 2.96252 10.9625L6.13752 24.5Z" stroke="#FFC224" stroke-width="1.5" stroke-linecap="round" stroke-linejoin="round"/>
<path d="M12.5 20.2124C15.1589 19.925 17.8411 19.925 20.5 20.2124" stroke="#FFC224" stroke-width="1.5" stroke-linecap="round" stroke-linejoin="round"/>
</svg>
