<svg width="33" height="32" viewBox="0 0 33 32" fill="none" xmlns="http://www.w3.org/2000/svg">
<path d="M12.0875 26.9999H6.50001C6.23479 26.9999 5.98044 26.8945 5.7929 26.707C5.60536 26.5195 5.50001 26.2651 5.50001 25.9999V20.4124C5.49955 20.2825 5.52471 20.1539 5.57404 20.0338C5.62338 19.9136 5.69591 19.8044 5.78751 19.7124L20.7875 4.71239C20.8806 4.61791 20.9915 4.54287 21.1138 4.49165C21.2361 4.44044 21.3674 4.41406 21.5 4.41406C21.6326 4.41406 21.7639 4.44044 21.8862 4.49165C22.0085 4.54287 22.1195 4.61791 22.2125 4.71239L27.7875 10.2874C27.882 10.3804 27.957 10.4914 28.0082 10.6137C28.0595 10.736 28.0858 10.8673 28.0858 10.9999C28.0858 11.1325 28.0595 11.2638 28.0082 11.3861C27.957 11.5084 27.882 11.6193 27.7875 11.7124L12.7875 26.7124C12.6955 26.804 12.5863 26.8765 12.4661 26.9259C12.346 26.9752 12.2174 27.0003 12.0875 26.9999V26.9999Z" stroke="#6C26FF" stroke-width="1.5" stroke-linecap="round" stroke-linejoin="round"/>
<path d="M17.5 8L24.5 15" stroke="#6C26FF" stroke-width="1.5" stroke-linecap="round" stroke-linejoin="round"/>
</svg>
