<svg width="33" height="32" viewBox="0 0 33 32" fill="none" xmlns="http://www.w3.org/2000/svg">
<path d="M10.5 25C12.7091 25 14.5 23.2091 14.5 21C14.5 18.7909 12.7091 17 10.5 17C8.29086 17 6.5 18.7909 6.5 21C6.5 23.2091 8.29086 25 10.5 25Z" stroke="#6C26FF" stroke-width="1.5" stroke-linecap="round" stroke-linejoin="round"/>
<path d="M4.5 28C5.1986 27.0685 6.10448 26.3125 7.1459 25.7918C8.18731 25.2711 9.33566 25 10.5 25C11.6643 25 12.8127 25.2711 13.8541 25.7918C14.8955 26.3125 15.8014 27.0685 16.5 28" stroke="#6C26FF" stroke-width="1.5" stroke-linecap="round" stroke-linejoin="round"/>
<path d="M10.5 12C12.7091 12 14.5 10.2091 14.5 8C14.5 5.79086 12.7091 4 10.5 4C8.29086 4 6.5 5.79086 6.5 8C6.5 10.2091 8.29086 12 10.5 12Z" stroke="#6C26FF" stroke-width="1.5" stroke-linecap="round" stroke-linejoin="round"/>
<path d="M4.5 15C5.1986 14.0685 6.10448 13.3125 7.1459 12.7918C8.18731 12.2711 9.33566 12 10.5 12C11.6643 12 12.8127 12.2711 13.8541 12.7918C14.8955 13.3125 15.8014 14.0685 16.5 15" stroke="#6C26FF" stroke-width="1.5" stroke-linecap="round" stroke-linejoin="round"/>
<path d="M22.5 25C24.7091 25 26.5 23.2091 26.5 21C26.5 18.7909 24.7091 17 22.5 17C20.2909 17 18.5 18.7909 18.5 21C18.5 23.2091 20.2909 25 22.5 25Z" stroke="#6C26FF" stroke-width="1.5" stroke-linecap="round" stroke-linejoin="round"/>
<path d="M16.5 28C17.1986 27.0685 18.1045 26.3125 19.1459 25.7918C20.1873 25.2711 21.3357 25 22.5 25C23.6643 25 24.8127 25.2711 25.8541 25.7918C26.8955 26.3125 27.8014 27.0685 28.5 28" stroke="#6C26FF" stroke-width="1.5" stroke-linecap="round" stroke-linejoin="round"/>
<path d="M22.5 12C24.7091 12 26.5 10.2091 26.5 8C26.5 5.79086 24.7091 4 22.5 4C20.2909 4 18.5 5.79086 18.5 8C18.5 10.2091 20.2909 12 22.5 12Z" stroke="#6C26FF" stroke-width="1.5" stroke-linecap="round" stroke-linejoin="round"/>
<path d="M16.5 15C17.1986 14.0685 18.1045 13.3125 19.1459 12.7918C20.1873 12.2711 21.3357 12 22.5 12C23.6643 12 24.8127 12.2711 25.8541 12.7918C26.8955 13.3125 27.8014 14.0685 28.5 15" stroke="#6C26FF" stroke-width="1.5" stroke-linecap="round" stroke-linejoin="round"/>
</svg>
