<svg width="33" height="32" viewBox="0 0 33 32" fill="none" xmlns="http://www.w3.org/2000/svg">
<path d="M16.5 22C21.4706 22 25.5 17.9706 25.5 13C25.5 8.02944 21.4706 4 16.5 4C11.5294 4 7.5 8.02944 7.5 13C7.5 17.9706 11.5294 22 16.5 22Z" stroke="#6C26FF" stroke-width="1.5" stroke-linecap="round" stroke-linejoin="round"/>
<path d="M16.5 17C18.7091 17 20.5 15.2091 20.5 13C20.5 10.7909 18.7091 9 16.5 9C14.2909 9 12.5 10.7909 12.5 13C12.5 15.2091 14.2909 17 16.5 17Z" stroke="#6C26FF" stroke-width="1.5" stroke-linecap="round" stroke-linejoin="round"/>
<path d="M16.5 22V26" stroke="#6C26FF" stroke-width="1.5" stroke-linecap="round" stroke-linejoin="round"/>
<path d="M4.5 26H28.5" stroke="#6C26FF" stroke-width="1.5" stroke-linecap="round" stroke-linejoin="round"/>
</svg>
